<svg width="100" height="65" viewBox="0 0 100 65" fill="none" xmlns="http://www.w3.org/2000/svg">
<g opacity="0.81">
<path fill-rule="evenodd" clip-rule="evenodd" d="M49.272 19.7322C38.4897 19.7322 31.9839 26.2081 31.9839 37.2606C31.9839 44.7105 34.9893 50.1308 40.3002 52.8389C41.5059 50.4078 44.9042 48.6561 48.9081 48.6561C53.0435 48.6561 56.5329 50.5248 57.6276 53.0806C63.1897 50.4653 66.4236 44.9511 66.4236 37.2606C66.4236 26.2081 59.8268 19.7322 49.272 19.7322ZM49.181 44.9264C45.0637 44.9264 43.6306 42.2949 43.6306 37.2606C43.6306 32.2263 45.0865 29.4575 49.181 29.4575C53.3666 29.4575 54.7996 32.2263 54.7996 37.2606C54.7996 42.3177 53.3666 44.9264 49.181 44.9264ZM88.6707 44.7656H87.92C86.0092 51.5161 82.2331 54.7655 77.4106 54.7655C71.792 54.7655 68.6983 50.6237 68.6983 43.4384V20.7613H80.3678V40.0059C80.3678 42.6375 81.6644 44.2164 83.9392 44.2164C86.7599 44.2164 88.3294 41.951 88.3294 38.7703V20.7613H99.9989V53.7587H88.6707V44.7656ZM1.84145 54.8574L0.340114 64.3081L0.420165 64.3199C2.2448 64.5886 3.60358 64.7887 5.8905 64.7887C14.944 64.7887 19.3343 61.402 22.2915 53.5302L34.5751 20.7617H22.0185L19.6755 33.3245C19.5183 34.1545 19.3612 34.9921 19.2024 35.8384C18.8096 37.9319 18.4068 40.0784 17.9694 42.2946H17.2188C16.6728 39.2054 16.0586 36.0933 15.3762 33.1185L12.692 20.7617H-0.00109863L11.1679 53.2556C10.2125 54.9261 8.84768 55.338 6.09523 55.338C4.73038 55.338 3.2063 55.132 1.84145 54.8574Z" fill="white"/>
<path fill-rule="evenodd" clip-rule="evenodd" d="M37.6867 26.0699L67.0891 22.6449C73.4584 21.8898 78.0761 16.3292 77.4619 10.1508C76.825 3.85794 70.9789 -0.6729 64.4731 0.0822403L34.8104 3.53758C28.4183 4.29272 23.8006 9.8533 24.4375 16.0317C24.8749 20.3533 27.7691 23.8439 31.6465 25.3621C31.8681 26.1478 32.2391 27.0101 32.8479 27.8661C35.8961 32.1223 41.1963 32.4885 41.1963 32.4885C41.1963 32.4885 39.1717 30.5663 37.9889 27.2483C37.8377 26.8214 37.7408 26.4292 37.6867 26.0699Z" fill="#664EFC"/>
<path d="M31.4113 14.3344L30.408 14.4592L30.1337 11.8664L31.137 11.7416L30.8828 9.4421L34.3359 9.01724L34.5901 11.3168L36.8067 11.0421L37.0809 13.6348L34.8644 13.9095L35.2025 17.0432C35.2665 17.5843 35.4968 17.8298 36.1502 17.7318C36.5469 17.6819 37.015 17.4957 37.2725 17.3798L37.9625 20.3062C37.19 20.6314 36.745 20.8399 35.5783 20.9892C33.1751 21.2887 32.0257 19.8802 31.8359 18.0766L31.4113 14.3344Z" fill="white"/>
<path d="M38.0586 15.7172C37.7234 12.5993 39.437 10.5345 42.5904 10.1367C45.6973 9.76188 47.8329 11.3305 48.1678 14.4709C48.5033 17.5664 46.7663 19.6539 43.6591 20.0512C40.5059 20.4265 38.394 18.8127 38.0586 15.7172ZM41.4902 15.2935C41.6363 16.7068 42.1378 17.3969 43.3667 17.2472C44.5956 17.0974 44.9287 16.3072 44.7828 14.8716C44.637 13.4359 44.1125 12.7235 42.8836 12.8733C41.6548 13.023 41.3212 13.8581 41.4902 15.2935Z" fill="white"/>
<path d="M55.7474 11.1883L55.9335 11.1636C56.3012 9.44751 57.2186 8.40041 58.5907 8.22612C60.521 7.97748 61.7801 9.58371 62.1384 12.8224C62.4965 16.0836 61.5237 17.9196 59.6167 18.1679C58.1749 18.343 57.1167 17.455 56.415 15.8421L56.2521 15.8666L56.5037 18.2732L53.062 18.6979L51.6938 6.1478L55.1355 5.72318L55.7474 11.1883ZM58.8363 13.2228C58.689 11.8733 58.1846 11.2939 57.1846 11.4186C56.3475 11.5189 55.8751 12.2227 55.9796 13.2574L56.0641 13.9996C56.1691 14.9892 56.7899 15.5447 57.6038 15.4448C58.6502 15.3195 58.9837 14.5722 58.8363 13.2228Z" fill="white"/>
<path d="M62.3973 13.1459C62.0407 9.84575 63.5945 7.69125 66.8665 7.29168C69.9065 6.91741 71.465 8.44949 71.7375 10.9863C71.7788 11.4354 71.8211 11.7946 71.8155 12.2892L65.7819 13.0372C66.0455 14.3153 66.5974 14.6907 67.5953 14.5661C68.5932 14.4416 68.8303 13.9666 68.9523 13.4256L71.8909 13.8169C71.6413 15.3935 70.7212 16.8434 67.8434 17.2157C64.9891 17.5652 62.732 16.3339 62.3973 13.1459ZM65.6571 11.7798L68.6275 11.4064C68.5261 10.1263 67.9757 9.61601 67.0474 9.73973C66.0263 9.86458 65.6033 10.3868 65.6571 11.7798Z" fill="white"/>
</g>
</svg>
