<svg width="36" height="36" viewBox="0 0 36 36" fill="none" xmlns="http://www.w3.org/2000/svg">
<path d="M18 36C8.0586 36 0 27.9414 0 18C0 8.0586 8.0586 0 18 0C27.9414 0 36 8.0586 36 18C36 27.9414 27.9414 36 18 36ZM12.402 20.106L12.4254 20.0934L13.9914 25.2594C14.193 25.8192 14.4702 25.92 14.8068 25.8732C15.1452 25.8282 15.3234 25.6464 15.5448 25.434L17.6832 23.3676L22.2732 26.766C23.112 27.2286 23.715 26.9892 23.9238 25.9884L26.9064 11.9088C27.2358 10.5984 26.6598 10.0728 25.6428 10.4904L8.1234 17.2584C6.9282 17.7372 6.9354 18.4068 7.9074 18.7038L12.402 20.1078V20.106Z" fill="white"/>
</svg>
